<?xml version="1.0" encoding="UTF-8"?>
<!DOCTYPE svg PUBLIC "-//W3C//DTD SVG 1.1//EN" "http://www.w3.org/Graphics/SVG/1.1/DTD/svg11.dtd">
<!-- Creator: CorelDRAW -->
<svg xmlns="http://www.w3.org/2000/svg" xml:space="preserve" width="6.82666in" height="6.82666in" style="shape-rendering:geometricPrecision; text-rendering:geometricPrecision; image-rendering:optimizeQuality; fill-rule:evenodd; clip-rule:evenodd"
viewBox="0 0 6.82666 6.82666"
 xmlns:xlink="http://www.w3.org/1999/xlink">
 <defs>
  <style type="text/css">
   <![CDATA[
    .fil4 {fill:none}
    .fil2 {fill:#3586C7}
    .fil0 {fill:#42A5F5}
    .fil3 {fill:#75A4CA}
    .fil1 {fill:#90CAF9}
   ]]>
  </style>
 </defs>
 <g id="Layer_x0020_1">
  <metadata id="CorelCorpID_0Corel-Layer"/>
  <g id="_271433712">
   <g>
    <circle id="_80517432" class="fil0" cx="3.41333" cy="3.41333" r="2.55997"/>
    <path id="_80517096" class="fil1" d="M0.886323 3.00254l2.48125 0c0.225945,0 0.410783,0.184843 0.410783,0.410787l0 3.54331e-005c0,0.225945 -0.184839,0.410783 -0.410783,0.410783l-2.48125 0c-0.021563,-0.133799 -0.0329646,-0.270972 -0.0329646,-0.410819 0,-0.13985 0.0114016,-0.277024 0.0329646,-0.410787zm4.51108 -1.2068c0.103953,0.127346 0.195878,0.26485 0.274055,0.410823l-2.09239 0c-0.112972,0 -0.205374,-0.0924016 -0.205374,-0.205374l0 -7.48031e-005c0,-0.112972 0.0924016,-0.205374 0.205374,-0.205374l1.81834 0zm0.444374 2.42944c-0.161043,0.481886 -0.461496,0.899929 -0.853433,1.20629l-1.76315 0c-0.331732,0 -0.603106,-0.271378 -0.603106,-0.603106l0 -7.48031e-005c0,-0.331728 0.271374,-0.603106 0.603106,-0.603106l2.61659 0z"/>
   </g>
   <g>
    <path id="_271434720" class="fil2" d="M3.43837 0.853685c1.40228,0.0134567 2.53493,1.15418 2.53493,2.55965 0,1.40546 -1.13266,2.54619 -2.53493,2.55964l0 -5.11929z"/>
    <path id="_271434600" class="fil3" d="M3.43837 3.0087c0.192504,0.0337717 0.33998,0.202807 0.33998,0.404626l0 3.54331e-005c0,0.201815 -0.147476,0.370854 -0.33998,0.404626l0 -0.809287zm0 -1.15686l0 0.298618c0.036815,0.0347638 0.0863898,0.0561024 0.140693,0.0561024l2.09239 0c-0.0781772,-0.145972 -0.170102,-0.283476 -0.274055,-0.410823l-1.81834 0c-0.0543031,0 -0.103878,0.0213425 -0.140693,0.0561024zm0 2.37333l0 1.20629 1.54997 0c0.391937,-0.306358 0.69239,-0.724402 0.853433,-1.20629l-2.40341 0z"/>
   </g>
  </g>
 </g>
 <rect class="fil4" width="6.82666" height="6.82666"/>
</svg>
